<svg version="1.1" viewBox="0.0 0.0 960.0 540.0" fill="none" stroke="none" stroke-linecap="square" stroke-miterlimit="10" xmlns:xlink="http://www.w3.org/1999/xlink" xmlns="http://www.w3.org/2000/svg"><clipPath id="p.0"><path d="m0 0l960.0 0l0 540.0l-960.0 0l0 -540.0z" clip-rule="nonzero"/></clipPath><g clip-path="url(#p.0)"><path fill="#000000" d="m0 0l960.0 0l0 540.0l-960.0 0z" fill-rule="evenodd"/><path fill="#000000" fill-opacity="0.0" d="m65.50656 49.910763l857.8268 0l0 426.58267l-857.8268 0z" fill-rule="evenodd"/><path fill="#ffffff" d="m445.56848 386.59076l0 -159.0625l-62.125 118.4375l-26.28125 0l-62.125 -118.4375l0 159.0625l-47.09375 0l0 -242.34375l50.515625 0l71.671875 137.89062l72.359375 -137.89062l50.171875 0l0 242.34375l-47.09375 0zm241.9989 -178.85938q-2.390625 -2.390625 -8.703125 -6.484375q-6.3125 -4.09375 -15.359375 -7.84375q-9.046875 -3.765625 -19.625 -6.65625q-10.578125 -2.90625 -21.5 -2.90625q-19.125 0 -28.859375 7.171875q-9.71875 7.171875 -9.71875 20.140625q0 9.890625 6.140625 15.703125q6.15625 5.796875 18.4375 9.890625q12.28125 4.09375 30.71875 8.875q23.890625 5.796875 41.46875 14.171875q17.578125 8.359375 26.96875 21.84375q9.390625 13.484375 9.390625 35.65625q0 19.46875 -7.171875 33.296875q-7.171875 13.8125 -19.796875 22.34375q-12.625 8.53125 -28.671875 12.46875q-16.046875 3.921875 -34.140625 3.921875q-18.078125 0 -36.171875 -3.75q-18.093811 -3.765625 -34.828186 -10.75q-16.71875 -7.0 -30.703125 -16.90625l20.8125 -40.625q3.078125 3.078125 10.921875 8.03125q7.859375 4.953125 19.109375 9.90625q11.265686 4.9375 24.578186 8.359375q13.3125 3.40625 26.96875 3.40625q19.109375 0 29.0 -6.484375q9.90625 -6.484375 9.90625 -18.4375q0 -10.921875 -7.84375 -17.0625q-7.84375 -6.140625 -21.84375 -10.75q-14.0 -4.609375 -33.109375 -10.078125q-22.875 -6.484375 -38.234436 -14.5q-15.359375 -8.015625 -22.875 -20.296875q-7.5 -12.296875 -7.5 -30.734375q0 -24.90625 11.765625 -41.796875q11.78125 -16.90625 31.921936 -25.609375q20.140625 -8.703125 44.71875 -8.703125q17.0625 0 32.25 3.75q15.1875 3.75 28.5 9.90625q13.3125 6.140625 23.90625 13.3125l-20.828125 38.21875z" fill-rule="nonzero"/></g></svg>