<svg version="1.1" viewBox="0.0 0.0 960.0 540.0" fill="none" stroke="none" stroke-linecap="square" stroke-miterlimit="10" xmlns:xlink="http://www.w3.org/1999/xlink" xmlns="http://www.w3.org/2000/svg"><clipPath id="p.0"><path d="m0 0l960.0 0l0 540.0l-960.0 0l0 -540.0z" clip-rule="nonzero"/></clipPath><g clip-path="url(#p.0)"><path fill="#000000" fill-opacity="0.0" d="m0 0l960.0 0l0 540.0l-960.0 0z" fill-rule="evenodd"/><path fill="#000000" fill-opacity="0.0" d="m111.519684 75.64567l743.9685 0l0 400.8504l-743.9685 0z" fill-rule="evenodd"/><path fill="#000000" d="m460.1441 340.64566l0 -154.12498l-68.53125 119.718735l-11.71875 0l-68.8125 -119.718735l0 154.12498l-18.65625 0l0 -189.32811l19.203125 0l73.859375 129.59373l74.390625 -129.59373l18.9375 0l0 189.32811l-18.671875 0zm176.79498 -153.85936q-4.0 -4.53125 -9.328125 -8.125q-5.328125 -3.609375 -12.0 -6.265625q-6.671875 -2.671875 -14.265625 -4.265625q-7.59375 -1.609375 -16.140625 -1.609375q-24.796875 0 -36.390625 9.46875q-11.59375 9.46875 -11.59375 25.734375q0 11.1875 5.453125 17.59375q5.46875 6.40625 17.203125 10.40625q11.734375 4.0 29.875 8.265625q20.265625 4.265625 34.921875 10.140625q14.671875 5.859375 22.671875 15.85936q8.0 10.0 8.0 27.0625q0 13.0625 -5.078125 22.671875q-5.0625 9.59375 -14.125 16.0q-9.0625 6.390625 -21.59375 9.453125q-12.53125 3.0625 -27.46875 3.0625q-14.671875 0 -28.140625 -3.0625q-13.453125 -3.0625 -25.453125 -9.0625q-12.0 -6.0 -22.40628 -15.328125l9.3281555 -15.203125q5.078125 5.328125 12.140625 10.0q7.0625 4.65625 15.71875 8.390625q8.671875 3.734375 18.671875 5.734375q10.0 2.0 20.671875 2.0q22.671875 0 35.328125 -8.265625q12.671875 -8.265625 12.671875 -24.53125q0 -11.734375 -6.40625 -18.796875q-6.390625 -7.0625 -19.203125 -11.59375q-12.796875 -4.53125 -31.453125 -8.812485q-19.734375 -4.53125 -33.34375 -10.125q-13.59375 -5.59375 -20.390625 -14.796875q-6.796875 -9.203125 -6.796875 -24.40625q0 -17.59375 8.65625 -29.71875q8.671875 -12.140625 23.875 -18.40625q15.203125 -6.265625 34.9375 -6.265625q12.53125 0 23.328125 2.53125q10.796875 2.53125 20.0 7.328125q9.203125 4.796875 17.203125 12.0l-9.078125 14.9375z" fill-rule="nonzero"/></g></svg>